<svg xmlns="http://www.w3.org/2000/svg" version="1.1" xmlns:xlink="http://www.w3.org/1999/xlink" xmlns:svgjs="http://svgjs.dev/svgjs" width="100%" height="100%" viewBox="0 0 1000 600"><rect width="1000" height="600" x="0" y="0" fill="white"/><g><rect width="333.3333333333333" height="333.3333333333333" y="115.12680454711163" fill="azure" transform="matrix(1.3454662618442792,0,0,1.3454662618442792,0,-79.14361601971659)" x="92.90457153320312"/><path d="M271.91645118847697 356.7934705516284Q249.68364565060358 356.7934705516284 232.42321564433686 347.53456438932636Q215.1342087671988 338.27565822702434 205.44664954182724 321.30099692947056Q195.78766718732697 304.3263356319169 195.78766718732697 281.89349199794435L195.78766718732697 281.89349199794435Q195.78766718732697 259.46064836397187 205.44664954182724 242.40025645380422Q215.1342087671988 225.31128767276533 232.42321564433686 216.05238151046328Q249.68364565060358 206.79347534816128 271.91645118847697 206.79347534816128L271.91645118847697 206.79347534816128Q301.55066628201774 206.79347534816128 321.4973221501869 221.8249094264664L321.4973221501869 221.8249094264664L321.4973221501869 241.97160339073469Q303.60820098475153 226.1400169280331 273.77394779511167 226.1400169280331L273.77394779511167 226.1400169280331Q257.11363207714226 226.1400169280331 244.2540401850561 232.9413121954031Q231.39444829296997 239.7140305919018 224.19307683340173 252.37358438788885Q216.99170537383347 265.03313818387585 216.99170537383347 281.89349199794435L216.99170537383347 281.89349199794435Q216.99170537383347 298.7824226828842 224.27880744601563 311.5277070914851Q231.5944863890691 324.27299150008605 244.45407828115523 331.0742867674561Q257.31367017324135 337.87558203482604 273.77394779511167 337.87558203482604L273.77394779511167 337.87558203482604Q289.0054199695159 337.87558203482604 301.0362826063343 333.8462432419724Q313.06714524315265 329.8454813199901 323.3548187568216 320.9866513498863L323.3548187568216 320.9866513498863L323.3548187568216 341.361960281125Q304.8370064322175 356.7934705516284 271.91645118847697 356.7934705516284L271.91645118847697 356.7934705516284Z " fill="#000000" transform="matrix(1.3454662618442792,0,0,1.3454662618442792,0,-79.14361601971659)"/><path d="M569.4460643059144 356.79347196951244L509.57124033679213 206.79347742665914L532.7582055174676 206.79347742665914L579.9666281989457 326.9603715249672L627.175050880424 206.79347742665914L650.332212763952 206.79347742665914L590.4573887948299 356.79347196951244L569.4460643059144 356.79347196951244Z " fill="black" transform="matrix(1.3454662618442792,0,0,1.3454662618442792,0,-79.14361601971659)"/></g></svg>